<svg width="455" height="63" viewBox="0 0 455 63" fill="none" xmlns="http://www.w3.org/2000/svg">
<circle cx="14" cy="13.5" r="12.5" fill="black" stroke="black" stroke-width="2"/>
<circle cx="14" cy="48.5" r="12.5" stroke="black" stroke-width="3"/>
<circle cx="223" cy="13.5" r="12.5" stroke="black" stroke-width="2" stroke-linecap="round" stroke-dasharray="3 5"/>
<circle cx="223" cy="48.5" r="12.5" stroke="black" stroke-width="2" stroke-linecap="round"/>
<path d="M40.66 20V9.84H36.852V8.56H45.908V9.84H42.1V20H40.66ZM52.5241 17.136H47.4841L46.4761 20H44.9881L49.2121 8.56H50.8121L55.0201 20H53.5321L52.5241 17.136ZM47.9641 15.856H52.0601L50.0281 9.888H49.9961L47.9641 15.856ZM56.2595 20V8.56H60.8995C63.1555 8.56 64.6755 9.776 64.6755 11.808C64.6755 13.456 63.8915 14.368 62.6275 14.688V14.72C65.1715 15.216 64.2435 19.712 64.8355 19.904V20H63.2835C62.7875 19.52 63.8755 15.376 60.9795 15.376H57.6995V20H56.2595ZM57.6995 9.84V14.096H60.5635C61.7475 14.096 63.2355 13.952 63.2355 11.968C63.2355 9.984 61.7475 9.84 60.5635 9.84H57.6995ZM74.6405 12.016C74.3045 10.384 72.9925 9.616 71.2645 9.616C68.5445 9.616 67.3925 12.128 67.3925 14.272C67.3925 16.432 68.2245 18.944 71.1045 18.944C73.1525 18.944 74.8325 17.472 74.8325 15.328H71.1045V14.048H76.2725V20H75.3125L74.8325 18.384H74.8005C73.9365 19.584 72.8645 20.224 71.1045 20.224C67.7765 20.224 65.9525 17.728 65.9525 14.272C65.9525 10.832 68.0965 8.336 71.2645 8.336C74.1605 8.336 75.6805 9.84 76.0805 12.016H74.6405ZM79.6995 13.44H85.5715V14.72H79.6995V18.72H86.5315V20H78.2595V8.56H86.3395V9.84H79.6995V13.44ZM91.3006 20V9.84H87.4926V8.56H96.5486V9.84H92.7406V20H91.3006Z" fill="black"/>
<path d="M44.196 52.136H39.156L38.148 55H36.66L40.884 43.56H42.484L46.692 55H45.204L44.196 52.136ZM39.636 50.856H43.732L41.7 44.888H41.668L39.636 50.856ZM49.5819 55V44.84H45.7739V43.56H54.8299V44.84H51.0219V55H49.5819ZM59.5819 55V44.84H55.7739V43.56H64.8299V44.84H61.0219V55H59.5819ZM70.7088 55.224C67.3488 55.224 65.1088 52.712 65.1088 49.272C65.1088 45.832 67.3488 43.336 70.7088 43.336C74.0688 43.336 76.3088 45.832 76.3088 49.272C76.3088 52.712 74.0688 55.224 70.7088 55.224ZM70.7088 53.944C73.5888 53.944 74.8688 51.736 74.8688 49.272C74.8688 46.808 73.5888 44.616 70.7088 44.616C67.8288 44.616 66.5488 46.808 66.5488 49.272C66.5488 51.736 67.8288 53.944 70.7088 53.944ZM78.0251 55V43.56H82.6651C84.9211 43.56 86.4411 44.776 86.4411 46.808C86.4411 48.456 85.6571 49.368 84.3931 49.688V49.72C86.9371 50.216 86.0091 54.712 86.6011 54.904V55H85.0491C84.5531 54.52 85.6411 50.376 82.7451 50.376H79.4651V55H78.0251ZM79.4651 44.84V49.096H82.3291C83.5131 49.096 85.0011 48.952 85.0011 46.968C85.0011 44.984 83.5131 44.84 82.3291 44.84H79.4651ZM88.1821 43.56H89.6221V55H88.1821V43.56ZM100.162 55.224C96.8019 55.224 94.5619 52.712 94.5619 49.272C94.5619 45.832 96.8019 43.336 100.162 43.336C103.522 43.336 105.762 45.832 105.762 49.272C105.762 52.712 103.522 55.224 100.162 55.224ZM100.162 53.944C103.042 53.944 104.322 51.736 104.322 49.272C104.322 46.808 103.042 44.616 100.162 44.616C97.2819 44.616 96.0019 46.808 96.0019 49.272C96.0019 51.736 97.2819 53.944 100.162 53.944ZM107.478 55V43.56H112.022C114.118 43.56 115.734 44.488 115.734 46.888C115.734 49.288 114.118 50.216 112.022 50.216H108.918V55H107.478ZM108.918 44.84V48.936H112.182C113.606 48.936 114.294 48.28 114.294 46.888C114.294 45.496 113.606 44.84 112.182 44.84H108.918ZM118.559 48.44H124.431V49.72H118.559V53.72H125.391V55H117.119V43.56H125.199V44.84H118.559V48.44ZM127.072 55V43.56H131.712C133.968 43.56 135.488 44.776 135.488 46.808C135.488 48.456 134.704 49.368 133.44 49.688V49.72C135.984 50.216 135.056 54.712 135.648 54.904V55H134.096C133.6 54.52 134.688 50.376 131.792 50.376H128.512V55H127.072ZM128.512 44.84V49.096H131.376C132.56 49.096 134.048 48.952 134.048 46.968C134.048 44.984 132.56 44.84 131.376 44.84H128.512ZM143.821 52.136H138.781L137.773 55H136.285L140.509 43.56H142.109L146.317 55H144.829L143.821 52.136ZM139.261 50.856H143.357L141.325 44.888H141.293L139.261 50.856ZM149.207 55V44.84H145.399V43.56H154.455V44.84H150.647V55H149.207ZM155.917 43.56H157.357V55H155.917V43.56ZM158.613 43.56H160.133L163.397 53.56H163.413L166.677 43.56H168.197L164.197 55H162.613L158.613 43.56ZM169.463 43.56H170.903V55H169.463V43.56Z" fill="black"/>
<path d="M254.828 12.016C254.492 10.384 253.18 9.616 251.452 9.616C248.732 9.616 247.58 12.128 247.58 14.272C247.58 16.432 248.412 18.944 251.292 18.944C253.34 18.944 255.02 17.472 255.02 15.328H251.292V14.048H256.46V20H255.5L255.02 18.384H254.988C254.124 19.584 253.052 20.224 251.292 20.224C247.964 20.224 246.14 17.728 246.14 14.272C246.14 10.832 248.284 8.336 251.452 8.336C254.348 8.336 255.868 9.84 256.268 12.016H254.828ZM263.615 20.224C260.255 20.224 258.015 17.712 258.015 14.272C258.015 10.832 260.255 8.336 263.615 8.336C266.975 8.336 269.215 10.832 269.215 14.272C269.215 17.712 266.975 20.224 263.615 20.224ZM263.615 18.944C266.495 18.944 267.775 16.736 267.775 14.272C267.775 11.808 266.495 9.616 263.615 9.616C260.735 9.616 259.455 11.808 259.455 14.272C259.455 16.736 260.735 18.944 263.615 18.944ZM269.457 8.56H270.977L274.241 18.56H274.257L277.521 8.56H279.041L275.041 20H273.457L269.457 8.56ZM281.715 13.44H287.587V14.72H281.715V18.72H288.547V20H280.275V8.56H288.355V9.84H281.715V13.44ZM290.228 20V8.56H294.868C297.124 8.56 298.644 9.776 298.644 11.808C298.644 13.456 297.86 14.368 296.596 14.688V14.72C299.14 15.216 298.212 19.712 298.804 19.904V20H297.252C296.756 19.52 297.844 15.376 294.948 15.376H291.668V20H290.228ZM291.668 9.84V14.096H294.532C295.716 14.096 297.204 13.952 297.204 11.968C297.204 9.984 295.716 9.84 294.532 9.84H291.668ZM300.353 20V8.56H302.113L307.825 17.984H307.857V8.56H309.297V20H307.537L301.825 10.608H301.793V20H300.353ZM318.071 17.136H313.031L312.023 20H310.535L314.759 8.56H316.359L320.567 20H319.079L318.071 17.136ZM313.511 15.856H317.607L315.575 9.888H315.543L313.511 15.856ZM321.806 20V8.56H323.566L329.278 17.984H329.31V8.56H330.75V20H328.99L323.278 10.608H323.246V20H321.806ZM341.266 12.336C341.058 11.248 340.226 9.616 337.842 9.616C335.122 9.616 333.986 11.968 333.986 14.272C333.986 16.592 335.122 18.944 337.842 18.944C340.242 18.944 341.17 17.312 341.266 15.872H342.706C342.45 18.4 340.658 20.224 337.842 20.224C334.706 20.224 332.546 17.728 332.546 14.272C332.546 10.832 334.706 8.336 337.842 8.336C340.642 8.336 342.434 10.16 342.706 12.336H341.266ZM345.762 13.44H351.634V14.72H345.762V18.72H352.594V20H344.322V8.56H352.402V9.84H345.762V13.44ZM358.918 13.44H364.79V14.72H358.918V18.72H365.75V20H357.478V8.56H365.558V9.84H358.918V13.44ZM374.747 13.328C377.323 13.968 379.003 14.4 379.003 17.008C379.003 18.672 377.771 20.224 374.875 20.224C372.171 20.224 370.075 18.784 369.915 16.16H371.355C371.515 17.728 372.475 18.944 374.875 18.944C376.859 18.944 377.562 18.032 377.562 17.008C377.562 15.44 376.715 15.152 374.155 14.56C372.443 14.16 370.395 13.568 370.395 11.344C370.395 9.536 371.787 8.336 374.315 8.336C376.747 8.336 378.443 9.584 378.635 11.952H377.195C376.987 10.416 376.123 9.616 374.315 9.616C372.699 9.616 371.835 10.24 371.835 11.184C371.835 12.704 373.067 12.912 374.747 13.328ZM389.382 16.192C389.382 18.528 388.054 20.224 384.998 20.224C381.942 20.224 380.614 18.528 380.614 16.192V8.56H382.054V16.192C382.054 18.048 383.014 18.944 384.998 18.944C386.982 18.944 387.942 18.048 387.942 16.192V8.56H389.382V16.192ZM391.338 20V8.56H395.882C397.978 8.56 399.594 9.488 399.594 11.888C399.594 14.288 397.978 15.216 395.882 15.216H392.778V20H391.338ZM392.778 9.84V13.936H396.042C397.466 13.936 398.154 13.28 398.154 11.888C398.154 10.496 397.466 9.84 396.042 9.84H392.778ZM400.978 20V8.56H405.522C407.618 8.56 409.234 9.488 409.234 11.888C409.234 14.288 407.618 15.216 405.522 15.216H402.418V20H400.978ZM402.418 9.84V13.936H405.682C407.106 13.936 407.794 13.28 407.794 11.888C407.794 10.496 407.106 9.84 405.682 9.84H402.418ZM415.943 20.224C412.583 20.224 410.343 17.712 410.343 14.272C410.343 10.832 412.583 8.336 415.943 8.336C419.303 8.336 421.543 10.832 421.543 14.272C421.543 17.712 419.303 20.224 415.943 20.224ZM415.943 18.944C418.823 18.944 420.103 16.736 420.103 14.272C420.103 11.808 418.823 9.616 415.943 9.616C413.063 9.616 411.783 11.808 411.783 14.272C411.783 16.736 413.063 18.944 415.943 18.944ZM423.26 20V8.56H427.9C430.156 8.56 431.676 9.776 431.676 11.808C431.676 13.456 430.892 14.368 429.628 14.688V14.72C432.172 15.216 431.244 19.712 431.836 19.904V20H430.284C429.788 19.52 430.876 15.376 427.98 15.376H424.7V20H423.26ZM424.7 9.84V14.096H427.564C428.748 14.096 430.236 13.952 430.236 11.968C430.236 9.984 428.748 9.84 427.564 9.84H424.7ZM436.238 20V9.84H432.43V8.56H441.486V9.84H437.678V20H436.238ZM447.365 20.224C444.005 20.224 441.765 17.712 441.765 14.272C441.765 10.832 444.005 8.336 447.365 8.336C450.725 8.336 452.965 10.832 452.965 14.272C452.965 17.712 450.725 20.224 447.365 20.224ZM447.365 18.944C450.245 18.944 451.525 16.736 451.525 14.272C451.525 11.808 450.245 9.616 447.365 9.616C444.485 9.616 443.205 11.808 443.205 14.272C443.205 16.736 444.485 18.944 447.365 18.944Z" fill="black"/>
<path d="M253.196 52.136H248.156L247.148 55H245.66L249.884 43.56H251.484L255.692 55H254.204L253.196 52.136ZM248.636 50.856H252.732L250.7 44.888H250.668L248.636 50.856ZM258.582 55V44.84H254.774V43.56H263.83V44.84H260.022V55H258.582ZM268.582 55V44.84H264.774V43.56H273.83V44.84H270.022V55H268.582ZM279.709 55.224C276.349 55.224 274.109 52.712 274.109 49.272C274.109 45.832 276.349 43.336 279.709 43.336C283.069 43.336 285.309 45.832 285.309 49.272C285.309 52.712 283.069 55.224 279.709 55.224ZM279.709 53.944C282.589 53.944 283.869 51.736 283.869 49.272C283.869 46.808 282.589 44.616 279.709 44.616C276.829 44.616 275.549 46.808 275.549 49.272C275.549 51.736 276.829 53.944 279.709 53.944ZM287.025 55V43.56H291.665C293.921 43.56 295.441 44.776 295.441 46.808C295.441 48.456 294.657 49.368 293.393 49.688V49.72C295.937 50.216 295.009 54.712 295.601 54.904V55H294.049C293.553 54.52 294.641 50.376 291.745 50.376H288.465V55H287.025ZM288.465 44.84V49.096H291.329C292.513 49.096 294.001 48.952 294.001 46.968C294.001 44.984 292.513 44.84 291.329 44.84H288.465ZM297.182 43.56H298.622V55H297.182V43.56ZM304.026 43.56H305.466V55H304.026V43.56ZM307.635 55V43.56H309.395L315.107 52.984H315.139V43.56H316.579V55H314.819L309.107 45.608H309.075V55H307.635ZM318.728 55V43.56H322.872C326.024 43.56 327.96 45.608 327.96 49.288C327.96 52.968 326.024 55 322.872 55H318.728ZM320.168 44.84V53.72H322.872C325.784 53.72 326.52 51.528 326.52 49.288C326.52 47.048 325.784 44.84 322.872 44.84H320.168ZM329.698 43.56H331.138V55H329.698V43.56ZM333.306 55V43.56H337.946C340.202 43.56 341.722 44.776 341.722 46.808C341.722 48.456 340.938 49.368 339.674 49.688V49.72C342.218 50.216 341.29 54.712 341.882 54.904V55H340.33C339.834 54.52 340.922 50.376 338.026 50.376H334.746V55H333.306ZM334.746 44.84V49.096H337.61C338.794 49.096 340.282 48.952 340.282 46.968C340.282 44.984 338.794 44.84 337.61 44.84H334.746ZM344.871 48.44H350.743V49.72H344.871V53.72H351.703V55H343.431V43.56H351.511V44.84H344.871V48.44ZM356.473 55V44.84H352.665V43.56H361.72V44.84H357.913V55H356.473ZM366.473 55V44.84H362.665V43.56H371.72V44.84H367.913V55H366.473ZM373.182 43.56H374.622V55H373.182V43.56Z" fill="black"/>
</svg>
